<?xml version="1.0" encoding="UTF-8"?>
<svg id="Camada_2" data-name="Camada 2" xmlns="http://www.w3.org/2000/svg" viewBox="0 0 905.27 610.65">
  <defs>
    <style>
      .cls-1 {
        fill: #66b447;
      }

      .cls-2 {
        fill: #231f20;
      }

      .cls-3 {
        fill: #ea8f23;
      }

      .cls-4 {
        fill: #00a68c;
      }

      .cls-5 {
        fill: #763188;
      }

      .cls-6 {
        fill: #e11870;
      }

      .cls-7 {
        fill: #e6362a;
      }
    </style>
  </defs>
  <g id="Layer_1" data-name="Layer 1">
    <g>
      <path class="cls-6" d="M571.22,517.76v92.83h-35.14v-92.83h35.14Z"/>
      <path class="cls-3" d="M272.47,517.76v92.83h-35.14v-92.83h35.14Z"/>
      <path class="cls-4" d="M650.3,517.76v92.83h-35.14v-92.83h35.14Z"/>
      <path class="cls-1" d="M483.35,517.76v92.83h-26.37v-92.83h26.37Z"/>
      <path class="cls-1" d="M852.38,517.76v92.83h-26.37v-92.83h26.37Z"/>
      <path class="cls-4" d="M26.46,517.76v92.9H8.89v-92.9h17.57Z"/>
      <path class="cls-7" d="M746.96,517.76v92.83h-17.57v-92.83h17.57Z"/>
      <path class="cls-4" d="M799.67,517.76v92.83h-17.57v-92.83h17.57Z"/>
      <path class="cls-3" d="M439.43,517.76v92.83h-17.57v-92.83h17.57Z"/>
      <path class="cls-7" d="M193.39,517.76v92.83h-17.57v-92.83h17.57Z"/>
      <path class="cls-6" d="M316.41,517.76v92.83h-17.57v-92.83h17.57Z"/>
      <path class="cls-6" d="M896.32,610.65h-17.57v-92.9h17.57v92.9Z"/>
      <path class="cls-5" d="M140.68,517.76v92.83h-8.8v-92.83h8.8Z"/>
      <path class="cls-4" d="M210.98,517.76v92.83h-8.8v-92.83h8.8Z"/>
      <path class="cls-1" d="M290.04,517.76v92.83h-8.8v-92.83h8.8Z"/>
      <path class="cls-5" d="M342.78,517.76v92.83h-8.8v-92.83h8.8Z"/>
      <path class="cls-7" d="M360.35,517.76v92.83h-8.8v-92.83h8.8Z"/>
      <path class="cls-4" d="M404.29,517.76v92.83h-8.8v-92.83h8.8Z"/>
      <path class="cls-7" d="M500.92,517.76v92.83h-8.8v-92.83h8.8Z"/>
      <path class="cls-5" d="M518.51,517.76v92.83h-8.8v-92.83h8.8Z"/>
      <path class="cls-1" d="M667.87,517.76v92.83h-8.8v-92.83h8.8Z"/>
      <path class="cls-6" d="M694.22,517.76v92.83h-8.8v-92.83h8.8Z"/>
      <path class="cls-5" d="M773.3,517.76v92.83h-8.8v-92.83h8.8Z"/>
      <path class="cls-3" d="M597.57,517.76v92.83h-8.8v-92.83h8.8Z"/>
      <path class="cls-3" d="M44.03,517.76v92.83h-8.8v-92.83h8.8Z"/>
      <path class="cls-3" d="M869.95,517.76v92.83h-8.8v-92.83h8.8Z"/>
      <path class="cls-1" d="M70.39,517.76v92.83h-8.8v-92.83h8.8Z"/>
      <path class="cls-6" d="M114.33,517.76v92.83h-8.8v-92.83h8.8Z"/>
      <g>
        <path class="cls-2" d="M169.96,133.61c-36.3,0-68.8,10.15-97.01,30.21V36.65C72.95,13.71,59.38,0,36.63,0S0,13.71,0,36.63v267.12c0,46.85,16.77,87.39,49.83,120.49,33.08,33.1,73.48,49.87,120.11,49.87s87.34-16.79,120.4-49.89c33.08-33.1,49.83-73.64,49.83-120.51s-16.77-87.1-49.83-120.2c-33.05-33.1-73.55-49.89-120.38-49.89ZM169.96,401.18c-26.75,0-49.11-9.37-68.37-28.66-19.26-19.28-28.63-41.78-28.63-68.8s9.35-49.2,28.63-68.48c19.26-19.28,41.61-28.66,68.37-28.66s49.43,9.37,68.68,28.66c19.26,19.28,28.63,41.69,28.63,68.48s-9.37,49.51-28.63,68.8c-19.26,19.28-41.74,28.66-68.68,28.66Z"/>
        <path class="cls-2" d="M550.85,133.61c-46.63,0-87.08,16.77-120.24,49.87-33.19,33.1-50,73.55-50,120.22s16.82,87.43,50,120.53c33.16,33.1,73.62,49.87,120.24,49.87s87.08-16.77,120.24-49.87c33.19-33.1,50-73.66,50-120.53s-16.82-87.1-50-120.22c-33.16-33.08-73.64-49.87-120.24-49.87ZM550.85,401.18c-27.03,0-49.51-9.37-68.73-28.66-19.24-19.28-28.57-41.81-28.57-68.82s9.35-49.2,28.57-68.51c19.21-19.28,41.69-28.66,68.73-28.66s49.51,9.37,68.73,28.66c19.21,19.28,28.57,41.69,28.57,68.51s-9.35,49.51-28.57,68.82c-19.21,19.28-41.69,28.66-68.73,28.66Z"/>
        <path class="cls-2" d="M868.66,401.18c-8.31,0-15.04-2.87-21.19-9.02-6.13-6.15-9-12.99-9-21.53V36.65c0-22.95-13.57-36.65-36.32-36.65s-36.63,13.71-36.63,36.63v333.98c0,28.34,10.22,52.94,30.37,73.08,20.15,20.17,44.63,30.41,72.75,30.41,22.92,0,36.63-13.68,36.63-36.63s-13.68-36.3-36.61-36.3Z"/>
      </g>
    </g>
  </g>
</svg>